<?xml version="1.0" encoding="utf-8"?>
<!-- Generator: Adobe Illustrator 21.1.0, SVG Export Plug-In . SVG Version: 6.00 Build 0)  -->
<svg version="1.1" id="Layer_1" xmlns="http://www.w3.org/2000/svg" xmlns:xlink="http://www.w3.org/1999/xlink" x="0px" y="0px"
	 viewBox="0 0 1024 1024" style="enable-background:new 0 0 1024 1024;" xml:space="preserve">
<style type="text/css">
	.st0{fill:#ED1C24;}
</style>
<g>
	<g>
		<path class="st0" d="M732.7,0H291.3c-66.4,0-120.4,53.6-120.4,119.5v785c0,65.9,54,119.5,120.4,119.5h441.4
			c66.4,0,120.5-53.6,120.5-119.5v-785C853.1,53.6,799.1,0,732.7,0z M785.5,894.4c0,33.9-27.3,61.4-60.8,61.4H300.3
			c-33.6,0-60.8-27.5-60.8-61.4V129.6c0-33.8,27.3-61.4,60.8-61.4h424.3c33.5,0,60.8,27.5,60.8,61.4V894.4z M409.7,239.5h204.6
			v-68.2H409.7V239.5z M511.9,785.3c-28.3,0-51.2,22.8-51.2,50.8c0,28.1,22.9,50.8,51.2,50.8c28.3,0,51.3-22.8,51.3-50.8
			C563.2,808,540.2,785.3,511.9,785.3z"/>
	</g>
</g>
</svg>
